<?xml version="1.0" encoding="UTF-8"?>
<svg xmlns="http://www.w3.org/2000/svg" xmlns:xlink="http://www.w3.org/1999/xlink" viewBox="0 0 323.95 323.95">
  <defs>
    <style>
      .cls-1 {
        fill: url(#linear-gradient-61);
      }

      .cls-2 {
        fill: url(#linear-gradient-15);
      }

      .cls-3 {
        fill: url(#linear-gradient-13);
      }

      .cls-4 {
        fill: url(#linear-gradient-28);
      }

      .cls-5 {
        fill: url(#Degradado_sin_nombre_2-26);
      }

      .cls-6 {
        fill: url(#Degradado_sin_nombre_2-22);
      }

      .cls-7 {
        fill: url(#linear-gradient-65);
      }

      .cls-8 {
        fill: url(#Degradado_sin_nombre_2-53);
      }

      .cls-9 {
        fill: url(#Degradado_sin_nombre_2-23);
      }

      .cls-10 {
        fill: url(#linear-gradient-69);
      }

      .cls-11 {
        fill: url(#linear-gradient-53);
      }

      .cls-12 {
        fill: url(#linear-gradient-42);
      }

      .cls-13 {
        fill: url(#Degradado_sin_nombre_2-31);
      }

      .cls-14 {
        fill: url(#linear-gradient-46);
      }

      .cls-15 {
        fill: url(#Degradado_sin_nombre_2-11);
      }

      .cls-16 {
        fill: url(#Degradado_sin_nombre_2-28);
      }

      .cls-17 {
        fill: url(#Degradado_sin_nombre_2-14);
      }

      .cls-18 {
        fill: url(#linear-gradient-60);
      }

      .cls-19 {
        fill: url(#Degradado_sin_nombre_2-80);
      }

      .cls-20 {
        fill: url(#Degradado_sin_nombre_2-30);
      }

      .cls-21 {
        fill: url(#linear-gradient-64);
      }

      .cls-22 {
        fill: url(#linear-gradient-56);
      }

      .cls-23 {
        fill: url(#linear-gradient-43);
      }

      .cls-24 {
        fill: url(#linear-gradient-25);
      }

      .cls-25 {
        fill: url(#Degradado_sin_nombre_2-57);
      }

      .cls-26 {
        fill: url(#linear-gradient-10);
      }

      .cls-27 {
        fill: url(#linear-gradient-12);
      }

      .cls-28 {
        fill: url(#Degradado_sin_nombre_2-54);
      }

      .cls-29 {
        fill: url(#linear-gradient-40);
      }

      .cls-30 {
        fill: url(#linear-gradient-27);
      }

      .cls-31 {
        fill: url(#linear-gradient-68);
      }

      .cls-32 {
        fill: url(#linear-gradient-37);
      }

      .cls-33 {
        fill: url(#Degradado_sin_nombre_2-24);
      }

      .cls-34 {
        fill: url(#linear-gradient-55);
      }

      .cls-35 {
        fill: url(#Degradado_sin_nombre_2-76);
      }

      .cls-36 {
        fill: url(#Degradado_sin_nombre_2-39);
      }

      .cls-37 {
        fill: url(#linear-gradient-39);
      }

      .cls-38 {
        fill: url(#Degradado_sin_nombre_2-40);
      }

      .cls-39 {
        fill: url(#Degradado_sin_nombre_2-71);
      }

      .cls-40 {
        fill: url(#linear-gradient-52);
      }

      .cls-41 {
        fill: url(#Degradado_sin_nombre_2-79);
      }

      .cls-42 {
        fill: url(#Degradado_sin_nombre_2-43);
      }

      .cls-43 {
        fill: url(#Degradado_sin_nombre_2-68);
      }

      .cls-44 {
        fill: url(#linear-gradient-58);
      }

      .cls-45 {
        fill: url(#Degradado_sin_nombre_2-21);
      }

      .cls-46 {
        fill: url(#linear-gradient-47);
      }

      .cls-47 {
        fill: url(#Degradado_sin_nombre_2-4);
      }

      .cls-48 {
        fill: url(#linear-gradient-26);
      }

      .cls-49 {
        fill: url(#Degradado_sin_nombre_2-20);
      }

      .cls-50 {
        fill: url(#Degradado_sin_nombre_2-12);
      }

      .cls-51 {
        fill: url(#Degradado_sin_nombre_2-8);
      }

      .cls-52 {
        fill: url(#Degradado_sin_nombre_2-49);
      }

      .cls-53 {
        fill: url(#linear-gradient-4);
      }

      .cls-54 {
        fill: url(#Degradado_sin_nombre_2-63);
      }

      .cls-55 {
        fill: url(#Degradado_sin_nombre_2-7);
      }

      .cls-56 {
        fill: url(#Degradado_sin_nombre_2-15);
      }

      .cls-57 {
        stroke: url(#linear-gradient-3);
      }

      .cls-57, .cls-58 {
        stroke-miterlimit: 10;
      }

      .cls-57, .cls-58, .cls-59 {
        fill: none;
        stroke-width: 2px;
      }

      .cls-60 {
        fill: url(#linear-gradient-35);
      }

      .cls-61 {
        fill: url(#linear-gradient-30);
      }

      .cls-62 {
        fill: url(#Degradado_sin_nombre_2-61);
      }

      .cls-63 {
        fill: url(#Degradado_sin_nombre_2-73);
      }

      .cls-64 {
        fill: url(#Degradado_sin_nombre_2-50);
      }

      .cls-65 {
        fill: url(#Degradado_sin_nombre_2-36);
      }

      .cls-66 {
        fill: url(#Degradado_sin_nombre_2-66);
      }

      .cls-67 {
        fill: url(#Degradado_sin_nombre_2-35);
      }

      .cls-68 {
        fill: url(#linear-gradient-44);
      }

      .cls-69 {
        fill: url(#linear-gradient-49);
      }

      .cls-70 {
        fill: url(#linear-gradient-34);
      }

      .cls-71 {
        fill: url(#Degradado_sin_nombre_2-72);
      }

      .cls-72 {
        fill: url(#Degradado_sin_nombre_2-77);
      }

      .cls-73 {
        fill: url(#linear-gradient-5);
      }

      .cls-74 {
        fill: url(#Degradado_sin_nombre_2-6);
      }

      .cls-75 {
        fill: url(#linear-gradient-38);
      }

      .cls-76 {
        fill: url(#linear-gradient-22);
      }

      .cls-77 {
        fill: url(#linear-gradient-24);
      }

      .cls-78 {
        fill: url(#Degradado_sin_nombre_2-9);
      }

      .cls-79 {
        fill: url(#Degradado_sin_nombre_2);
      }

      .cls-80 {
        fill: url(#linear-gradient-54);
      }

      .cls-81 {
        fill: url(#linear-gradient-70);
        opacity: .42;
      }

      .cls-81, .cls-82 {
        mix-blend-mode: screen;
      }

      .cls-83 {
        isolation: isolate;
      }

      .cls-84 {
        fill: url(#Degradado_sin_nombre_2-10);
      }

      .cls-85 {
        fill: url(#linear-gradient-33);
      }

      .cls-86 {
        fill: url(#linear-gradient-51);
      }

      .cls-87 {
        fill: url(#linear-gradient-8);
      }

      .cls-88 {
        fill: url(#linear-gradient-66);
      }

      .cls-89 {
        fill: url(#linear-gradient-57);
      }

      .cls-90 {
        fill: url(#Degradado_sin_nombre_2-42);
      }

      .cls-91 {
        fill: url(#Degradado_sin_nombre_2-33);
      }

      .cls-92 {
        fill: url(#Degradado_sin_nombre_2-69);
      }

      .cls-93 {
        fill: url(#Degradado_sin_nombre_2-34);
      }

      .cls-94 {
        fill: url(#Degradado_sin_nombre_2-19);
      }

      .cls-95 {
        fill: url(#Degradado_sin_nombre_2-13);
      }

      .cls-58 {
        stroke: url(#linear-gradient-2);
      }

      .cls-96 {
        fill: url(#linear-gradient-14);
      }

      .cls-97 {
        fill: url(#linear-gradient-62);
      }

      .cls-98 {
        fill: url(#linear-gradient-29);
      }

      .cls-99 {
        fill: url(#Degradado_sin_nombre_2-78);
      }

      .cls-100 {
        fill: url(#linear-gradient-20);
      }

      .cls-101 {
        fill: url(#linear-gradient-67);
      }

      .cls-102 {
        fill: url(#linear-gradient-17);
      }

      .cls-103 {
        fill: url(#linear-gradient-50);
      }

      .cls-104 {
        fill: url(#linear-gradient-7);
      }

      .cls-105 {
        fill: url(#Degradado_sin_nombre_2-64);
      }

      .cls-106 {
        fill: url(#Degradado_sin_nombre_2-38);
      }

      .cls-107 {
        fill: url(#Degradado_sin_nombre_2-65);
      }

      .cls-108 {
        fill: url(#Degradado_sin_nombre_2-37);
      }

      .cls-109 {
        fill: url(#Degradado_sin_nombre_2-48);
      }

      .cls-110 {
        fill: url(#Degradado_sin_nombre_2-27);
      }

      .cls-111 {
        fill: url(#linear-gradient-9);
      }

      .cls-112 {
        fill: url(#Degradado_sin_nombre_2-45);
      }

      .cls-113 {
        mix-blend-mode: multiply;
      }

      .cls-114 {
        fill: url(#linear-gradient-59);
      }

      .cls-115 {
        fill: url(#Degradado_sin_nombre_2-5);
      }

      .cls-116 {
        fill: url(#linear-gradient-11);
      }

      .cls-117 {
        fill: url(#Degradado_sin_nombre_2-51);
      }

      .cls-118 {
        fill: url(#Degradado_sin_nombre_2-56);
      }

      .cls-119 {
        fill: url(#linear-gradient-19);
      }

      .cls-59 {
        filter: url(#drop-shadow-1);
        stroke: #fcf298;
        stroke-dasharray: 0 6;
        stroke-linecap: round;
        stroke-linejoin: round;
      }

      .cls-120 {
        fill: url(#linear-gradient-6);
      }

      .cls-121 {
        fill: url(#Degradado_sin_nombre_2-70);
      }

      .cls-122 {
        fill: url(#Degradado_sin_nombre_2-3);
      }

      .cls-123 {
        fill: url(#Degradado_sin_nombre_2-74);
      }

      .cls-124 {
        fill: url(#Degradado_sin_nombre_2-67);
      }

      .cls-125 {
        fill: url(#Degradado_sin_nombre_2-29);
      }

      .cls-126 {
        fill: url(#Degradado_sin_nombre_2-46);
      }

      .cls-127 {
        fill: url(#Degradado_sin_nombre_2-47);
      }

      .cls-128 {
        fill: url(#Degradado_sin_nombre_2-17);
      }

      .cls-129 {
        fill: url(#linear-gradient-36);
      }

      .cls-130 {
        fill: url(#linear-gradient-21);
      }

      .cls-131 {
        fill: url(#linear-gradient-45);
      }

      .cls-132 {
        fill: url(#Degradado_sin_nombre_2-18);
      }

      .cls-133 {
        fill: url(#Degradado_sin_nombre_2-55);
      }

      .cls-134 {
        fill: url(#Degradado_sin_nombre_2-16);
      }

      .cls-135 {
        fill: url(#Degradado_sin_nombre_2-32);
      }

      .cls-136 {
        fill: url(#Degradado_sin_nombre_2-60);
      }

      .cls-137 {
        fill: url(#Degradado_sin_nombre_2-58);
      }

      .cls-138 {
        fill: url(#linear-gradient-48);
      }

      .cls-139 {
        fill: url(#Degradado_sin_nombre_2-62);
      }

      .cls-140 {
        fill: url(#linear-gradient-32);
      }

      .cls-141 {
        fill: url(#linear-gradient-41);
      }

      .cls-142 {
        fill: url(#linear-gradient-16);
      }

      .cls-143 {
        fill: url(#Degradado_sin_nombre_2-52);
      }

      .cls-144 {
        fill: url(#Degradado_sin_nombre_2-25);
      }

      .cls-145 {
        fill: url(#linear-gradient);
      }

      .cls-82 {
        fill: #fcf298;
        opacity: .37;
      }

      .cls-146 {
        fill: url(#Degradado_sin_nombre_2-2);
      }

      .cls-147 {
        fill: url(#linear-gradient-23);
      }

      .cls-148 {
        fill: url(#linear-gradient-31);
      }

      .cls-149 {
        fill: url(#Degradado_sin_nombre_2-75);
      }

      .cls-150 {
        fill: url(#linear-gradient-63);
      }

      .cls-151 {
        fill: url(#Degradado_sin_nombre_2-41);
      }

      .cls-152 {
        fill: url(#Degradado_sin_nombre_2-44);
      }

      .cls-153 {
        fill: url(#Degradado_sin_nombre_2-59);
      }

      .cls-154 {
        fill: url(#linear-gradient-18);
      }
    </style>
    <linearGradient id="linear-gradient" x1="48.13" y1="48.13" x2="275.82" y2="275.82" gradientUnits="userSpaceOnUse">
      <stop offset="0" stop-color="#b57419"/>
      <stop offset=".03" stop-color="#bc7f24"/>
      <stop offset=".25" stop-color="#f2ce70"/>
      <stop offset=".35" stop-color="#f7da93"/>
      <stop offset=".43" stop-color="#fbe3ad"/>
      <stop offset=".48" stop-color="#fde7b7"/>
      <stop offset=".53" stop-color="#fbe3aa"/>
      <stop offset=".62" stop-color="#f8da88"/>
      <stop offset=".67" stop-color="#f6d576"/>
      <stop offset=".73" stop-color="#edc869"/>
      <stop offset=".85" stop-color="#d6a649"/>
      <stop offset="1" stop-color="#b57419"/>
    </linearGradient>
    <filter id="drop-shadow-1" x="35.38" y="35.37" width="255.12" height="255.12" filterUnits="userSpaceOnUse">
      <feOffset dx="1" dy="1"/>
      <feGaussianBlur result="blur" stdDeviation="1"/>
      <feFlood flood-color="#bc8636" flood-opacity=".75"/>
      <feComposite in2="blur" operator="in"/>
      <feComposite in="SourceGraphic"/>
    </filter>
    <linearGradient id="linear-gradient-2" x1="70.02" y1="253.93" x2="253.93" y2="70.02" gradientTransform="translate(161.98 -67.09) rotate(45)" gradientUnits="userSpaceOnUse">
      <stop offset="0" stop-color="#b57419"/>
      <stop offset=".15" stop-color="#d6a649"/>
      <stop offset=".27" stop-color="#edc869"/>
      <stop offset=".33" stop-color="#f6d576"/>
      <stop offset=".38" stop-color="#f8da88"/>
      <stop offset=".47" stop-color="#fbe3aa"/>
      <stop offset=".52" stop-color="#fde7b7"/>
      <stop offset=".57" stop-color="#fbe3ad"/>
      <stop offset=".65" stop-color="#f7da93"/>
      <stop offset=".75" stop-color="#f2ce70"/>
      <stop offset=".97" stop-color="#bc7f24"/>
      <stop offset="1" stop-color="#b57419"/>
    </linearGradient>
    <linearGradient id="linear-gradient-3" x1="47.44" y1="276.51" x2="276.51" y2="47.44" gradientTransform="matrix(1,0,0,1,0,0)" xlink:href="#linear-gradient-2"/>
    <linearGradient id="linear-gradient-4" x1="128.76" y1="-26.91" x2="358.09" y2="236.42" xlink:href="#linear-gradient"/>
    <linearGradient id="linear-gradient-5" x1="120.96" y1="-20.12" x2="350.29" y2="243.21" xlink:href="#linear-gradient"/>
    <linearGradient id="linear-gradient-6" x1="112.56" y1="-12.8" x2="341.89" y2="250.53" xlink:href="#linear-gradient"/>
    <linearGradient id="linear-gradient-7" x1="103.62" y1="-5.02" x2="332.96" y2="258.31" xlink:href="#linear-gradient"/>
    <linearGradient id="linear-gradient-8" x1="94.24" y1="3.15" x2="323.57" y2="266.48" xlink:href="#linear-gradient"/>
    <linearGradient id="linear-gradient-9" x1="84.41" y1="11.71" x2="313.74" y2="275.05" xlink:href="#linear-gradient"/>
    <linearGradient id="linear-gradient-10" x1="74.23" y1="20.58" x2="303.56" y2="283.91" xlink:href="#linear-gradient"/>
    <linearGradient id="linear-gradient-11" x1="-55.03" y1="133.14" x2="174.31" y2="396.48" xlink:href="#linear-gradient"/>
    <linearGradient id="linear-gradient-12" x1="-53.91" y1="132.17" x2="175.43" y2="395.5" xlink:href="#linear-gradient"/>
    <linearGradient id="linear-gradient-13" x1="-51.81" y1="130.34" x2="177.53" y2="393.67" xlink:href="#linear-gradient"/>
    <linearGradient id="linear-gradient-14" x1="-48.75" y1="127.67" x2="180.59" y2="391.01" xlink:href="#linear-gradient"/>
    <linearGradient id="linear-gradient-15" x1="-44.75" y1="124.19" x2="184.59" y2="387.53" xlink:href="#linear-gradient"/>
    <linearGradient id="linear-gradient-16" x1="-39.85" y1="119.93" x2="189.48" y2="383.26" xlink:href="#linear-gradient"/>
    <linearGradient id="linear-gradient-17" x1="-34.09" y1="114.91" x2="195.24" y2="378.25" xlink:href="#linear-gradient"/>
    <linearGradient id="linear-gradient-18" x1="-27.69" y1="109.33" x2="201.65" y2="372.67" xlink:href="#linear-gradient"/>
    <linearGradient id="linear-gradient-19" x1="-20.56" y1="103.12" x2="208.78" y2="366.46" xlink:href="#linear-gradient"/>
    <linearGradient id="linear-gradient-20" x1="-12.76" y1="96.33" x2="216.57" y2="359.67" xlink:href="#linear-gradient"/>
    <linearGradient id="linear-gradient-21" x1="-4.36" y1="89.02" x2="224.98" y2="352.35" xlink:href="#linear-gradient"/>
    <linearGradient id="linear-gradient-22" x1="4.58" y1="81.24" x2="233.91" y2="344.57" xlink:href="#linear-gradient"/>
    <linearGradient id="linear-gradient-23" x1="13.96" y1="73.06" x2="243.29" y2="336.4" xlink:href="#linear-gradient"/>
    <linearGradient id="linear-gradient-24" x1="23.79" y1="64.5" x2="253.13" y2="327.83" xlink:href="#linear-gradient"/>
    <linearGradient id="linear-gradient-25" x1="33.97" y1="55.63" x2="263.31" y2="318.97" xlink:href="#linear-gradient"/>
    <linearGradient id="linear-gradient-26" x1="44.34" y1="46.61" x2="273.67" y2="309.94" xlink:href="#linear-gradient"/>
    <linearGradient id="linear-gradient-27" x1="54.78" y1="37.51" x2="284.12" y2="300.84" xlink:href="#linear-gradient"/>
    <linearGradient id="linear-gradient-28" x1="65.23" y1="28.42" x2="294.56" y2="291.75" xlink:href="#linear-gradient"/>
    <linearGradient id="linear-gradient-29" x1="75.57" y1="19.41" x2="304.9" y2="282.74" xlink:href="#linear-gradient"/>
    <linearGradient id="linear-gradient-30" x1="157.39" y1="-51.85" x2="386.73" y2="211.48" xlink:href="#linear-gradient"/>
    <linearGradient id="linear-gradient-31" x1="160.33" y1="-54.41" x2="389.66" y2="208.93" xlink:href="#linear-gradient"/>
    <linearGradient id="linear-gradient-32" x1="162.3" y1="-56.13" x2="391.64" y2="207.21" xlink:href="#linear-gradient"/>
    <linearGradient id="linear-gradient-33" x1="163.3" y1="-56.99" x2="392.63" y2="206.34" xlink:href="#linear-gradient"/>
    <linearGradient id="linear-gradient-34" x1="163.23" y1="-56.93" x2="392.56" y2="206.4" xlink:href="#linear-gradient"/>
    <linearGradient id="linear-gradient-35" x1="162.11" y1="-55.95" x2="391.44" y2="207.38" xlink:href="#linear-gradient"/>
    <linearGradient id="linear-gradient-36" x1="160.01" y1="-54.13" x2="389.34" y2="209.21" xlink:href="#linear-gradient"/>
    <linearGradient id="linear-gradient-37" x1="156.95" y1="-51.46" x2="386.28" y2="211.87" xlink:href="#linear-gradient"/>
    <linearGradient id="linear-gradient-38" x1="152.95" y1="-47.98" x2="382.28" y2="215.35" xlink:href="#linear-gradient"/>
    <linearGradient id="linear-gradient-39" x1="148.05" y1="-43.71" x2="377.38" y2="219.62" xlink:href="#linear-gradient"/>
    <linearGradient id="linear-gradient-40" x1="142.29" y1="-38.7" x2="371.63" y2="224.63" xlink:href="#linear-gradient"/>
    <linearGradient id="linear-gradient-41" x1="135.89" y1="-33.12" x2="365.22" y2="230.21" xlink:href="#linear-gradient"/>
    <linearGradient id="linear-gradient-42" x1="149.44" y1="-51.6" x2="378.77" y2="211.73" gradientTransform="translate(347.37 -11.66) rotate(98.7)" xlink:href="#linear-gradient"/>
    <linearGradient id="linear-gradient-43" x1="141.64" y1="-44.81" x2="370.98" y2="218.52" gradientTransform="translate(347.37 -11.66) rotate(98.7)" xlink:href="#linear-gradient"/>
    <linearGradient id="linear-gradient-44" x1="133.24" y1="-37.49" x2="362.57" y2="225.84" gradientTransform="translate(347.37 -11.66) rotate(98.7)" xlink:href="#linear-gradient"/>
    <linearGradient id="linear-gradient-45" x1="124.31" y1="-29.71" x2="353.64" y2="233.62" gradientTransform="translate(347.37 -11.66) rotate(98.7)" xlink:href="#linear-gradient"/>
    <linearGradient id="linear-gradient-46" x1="114.93" y1="-21.54" x2="344.26" y2="241.79" gradientTransform="translate(347.37 -11.66) rotate(98.7)" xlink:href="#linear-gradient"/>
    <linearGradient id="linear-gradient-47" x1="105.09" y1="-12.97" x2="334.42" y2="250.36" gradientTransform="translate(347.37 -11.66) rotate(98.7)" xlink:href="#linear-gradient"/>
    <linearGradient id="linear-gradient-48" x1="94.91" y1="-4.11" x2="324.24" y2="259.22" gradientTransform="translate(347.37 -11.66) rotate(98.7)" xlink:href="#linear-gradient"/>
    <linearGradient id="linear-gradient-49" x1="-7.19" y1="91.39" x2="222.15" y2="354.74" gradientTransform="translate(265.36 -58.04) rotate(81.99)" xlink:href="#linear-gradient"/>
    <linearGradient id="linear-gradient-50" x1="-2.29" y1="87.13" x2="227.05" y2="350.47" gradientTransform="translate(265.36 -58.04) rotate(81.99)" xlink:href="#linear-gradient"/>
    <linearGradient id="linear-gradient-51" x1="3.46" y1="82.11" x2="232.81" y2="345.46" gradientTransform="translate(265.36 -58.04) rotate(81.99)" xlink:href="#linear-gradient"/>
    <linearGradient id="linear-gradient-52" x1="9.87" y1="76.53" x2="239.21" y2="339.88" gradientTransform="translate(265.36 -58.04) rotate(81.99)" xlink:href="#linear-gradient"/>
    <linearGradient id="linear-gradient-53" x1="17" y1="70.32" x2="246.35" y2="333.67" gradientTransform="translate(265.36 -58.04) rotate(81.99)" xlink:href="#linear-gradient"/>
    <linearGradient id="linear-gradient-54" x1="24.8" y1="63.53" x2="254.14" y2="326.88" gradientTransform="translate(265.36 -58.04) rotate(81.99)" xlink:href="#linear-gradient"/>
    <linearGradient id="linear-gradient-55" x1="33.2" y1="56.22" x2="262.54" y2="319.56" gradientTransform="translate(265.36 -58.04) rotate(81.99)" xlink:href="#linear-gradient"/>
    <linearGradient id="linear-gradient-56" x1="42.13" y1="48.44" x2="271.47" y2="311.78" gradientTransform="translate(265.36 -58.04) rotate(81.99)" xlink:href="#linear-gradient"/>
    <linearGradient id="linear-gradient-57" x1="51.52" y1="40.26" x2="280.86" y2="303.61" gradientTransform="translate(265.36 -58.04) rotate(81.99)" xlink:href="#linear-gradient"/>
    <linearGradient id="linear-gradient-58" x1="61.35" y1="31.7" x2="290.7" y2="295.05" gradientTransform="translate(265.36 -58.04) rotate(81.99)" xlink:href="#linear-gradient"/>
    <linearGradient id="linear-gradient-59" x1="181.01" y1="-79.09" x2="410.34" y2="184.24" gradientTransform="translate(347.37 -11.66) rotate(98.7)" xlink:href="#linear-gradient"/>
    <linearGradient id="linear-gradient-60" x1="182.99" y1="-80.81" x2="412.32" y2="182.52" gradientTransform="translate(347.37 -11.66) rotate(98.7)" xlink:href="#linear-gradient"/>
    <linearGradient id="linear-gradient-61" x1="183.98" y1="-81.68" x2="413.32" y2="181.65" gradientTransform="translate(347.37 -11.66) rotate(98.7)" xlink:href="#linear-gradient"/>
    <linearGradient id="linear-gradient-62" x1="183.91" y1="-81.62" x2="413.24" y2="181.71" gradientTransform="translate(347.37 -11.66) rotate(98.7)" xlink:href="#linear-gradient"/>
    <linearGradient id="linear-gradient-63" x1="182.79" y1="-80.64" x2="412.12" y2="182.69" gradientTransform="translate(347.37 -11.66) rotate(98.7)" xlink:href="#linear-gradient"/>
    <linearGradient id="linear-gradient-64" x1="180.69" y1="-78.81" x2="410.02" y2="184.52" gradientTransform="translate(347.37 -11.66) rotate(98.7)" xlink:href="#linear-gradient"/>
    <linearGradient id="linear-gradient-65" x1="177.63" y1="-76.14" x2="406.96" y2="187.18" gradientTransform="translate(347.37 -11.66) rotate(98.7)" xlink:href="#linear-gradient"/>
    <linearGradient id="linear-gradient-66" x1="173.63" y1="-72.66" x2="402.96" y2="190.67" gradientTransform="translate(347.37 -11.66) rotate(98.7)" xlink:href="#linear-gradient"/>
    <linearGradient id="linear-gradient-67" x1="168.73" y1="-68.4" x2="398.07" y2="194.93" gradientTransform="translate(347.37 -11.66) rotate(98.7)" xlink:href="#linear-gradient"/>
    <linearGradient id="linear-gradient-68" x1="162.98" y1="-63.39" x2="392.31" y2="199.94" gradientTransform="translate(347.37 -11.66) rotate(98.7)" xlink:href="#linear-gradient"/>
    <linearGradient id="linear-gradient-69" x1="156.57" y1="-57.8" x2="385.9" y2="205.52" gradientTransform="translate(347.37 -11.66) rotate(98.7)" xlink:href="#linear-gradient"/>
    <linearGradient id="linear-gradient-70" x1="154.87" y1="168.09" x2="275.46" y2="47.5" gradientUnits="userSpaceOnUse">
      <stop offset="0" stop-color="#f2ce70"/>
      <stop offset=".34" stop-color="#a28a4b"/>
      <stop offset="1" stop-color="#000100"/>
    </linearGradient>
    <linearGradient id="Degradado_sin_nombre_2" data-name="Degradado sin nombre 2" x1="31.88" y1="233.36" x2="132.88" y2="151.99" gradientUnits="userSpaceOnUse">
      <stop offset="0" stop-color="#b4741a"/>
      <stop offset=".06" stop-color="#bb7f25"/>
      <stop offset=".48" stop-color="#f2ce70"/>
      <stop offset=".54" stop-color="#e8c062"/>
      <stop offset=".74" stop-color="#cc973b"/>
      <stop offset=".9" stop-color="#ba7d23"/>
      <stop offset="1" stop-color="#b4741a"/>
    </linearGradient>
    <linearGradient id="Degradado_sin_nombre_2-2" data-name="Degradado sin nombre 2" x1="44.25" y1="248.72" x2="145.26" y2="167.35" xlink:href="#Degradado_sin_nombre_2"/>
    <linearGradient id="Degradado_sin_nombre_2-3" data-name="Degradado sin nombre 2" x1="51.45" y1="257.66" x2="152.46" y2="176.29" xlink:href="#Degradado_sin_nombre_2"/>
    <linearGradient id="Degradado_sin_nombre_2-4" data-name="Degradado sin nombre 2" x1="44.1" y1="248.53" x2="145.1" y2="167.16" xlink:href="#Degradado_sin_nombre_2"/>
    <linearGradient id="Degradado_sin_nombre_2-5" data-name="Degradado sin nombre 2" x1="45.96" y1="250.84" x2="146.97" y2="169.47" xlink:href="#Degradado_sin_nombre_2"/>
    <linearGradient id="Degradado_sin_nombre_2-6" data-name="Degradado sin nombre 2" x1="35.32" y1="237.63" x2="136.33" y2="156.26" xlink:href="#Degradado_sin_nombre_2"/>
    <linearGradient id="Degradado_sin_nombre_2-7" data-name="Degradado sin nombre 2" x1="29.98" y1="231" x2="130.99" y2="149.63" xlink:href="#Degradado_sin_nombre_2"/>
    <linearGradient id="Degradado_sin_nombre_2-8" data-name="Degradado sin nombre 2" x1="39.03" y1="242.24" x2="140.04" y2="160.87" xlink:href="#Degradado_sin_nombre_2"/>
    <linearGradient id="Degradado_sin_nombre_2-9" data-name="Degradado sin nombre 2" x1="48.87" y1="254.45" x2="149.87" y2="173.08" xlink:href="#Degradado_sin_nombre_2"/>
    <linearGradient id="Degradado_sin_nombre_2-10" data-name="Degradado sin nombre 2" x1="29.11" y1="229.92" x2="130.11" y2="148.55" xlink:href="#Degradado_sin_nombre_2"/>
    <linearGradient id="Degradado_sin_nombre_2-11" data-name="Degradado sin nombre 2" x1="63.19" y1="272.23" x2="164.2" y2="190.86" xlink:href="#Degradado_sin_nombre_2"/>
    <linearGradient id="Degradado_sin_nombre_2-12" data-name="Degradado sin nombre 2" x1="50.73" y1="256.76" x2="151.74" y2="175.39" xlink:href="#Degradado_sin_nombre_2"/>
    <linearGradient id="Degradado_sin_nombre_2-13" data-name="Degradado sin nombre 2" x1="64.11" y1="273.38" x2="165.12" y2="192.01" xlink:href="#Degradado_sin_nombre_2"/>
    <linearGradient id="Degradado_sin_nombre_2-14" data-name="Degradado sin nombre 2" x1="91.95" y1="307.94" x2="192.96" y2="226.57" xlink:href="#Degradado_sin_nombre_2"/>
    <linearGradient id="Degradado_sin_nombre_2-15" data-name="Degradado sin nombre 2" x1="100.98" y1="319.14" x2="201.99" y2="237.78" xlink:href="#Degradado_sin_nombre_2"/>
    <linearGradient id="Degradado_sin_nombre_2-16" data-name="Degradado sin nombre 2" x1="93.77" y1="310.2" x2="194.78" y2="228.83" xlink:href="#Degradado_sin_nombre_2"/>
    <linearGradient id="Degradado_sin_nombre_2-17" data-name="Degradado sin nombre 2" x1="89.85" y1="305.33" x2="190.86" y2="223.96" xlink:href="#Degradado_sin_nombre_2"/>
    <linearGradient id="Degradado_sin_nombre_2-18" data-name="Degradado sin nombre 2" x1="74.62" y1="286.41" x2="175.62" y2="205.05" xlink:href="#Degradado_sin_nombre_2"/>
    <linearGradient id="Degradado_sin_nombre_2-19" data-name="Degradado sin nombre 2" x1="63.17" y1="272.21" x2="164.18" y2="190.84" xlink:href="#Degradado_sin_nombre_2"/>
    <linearGradient id="Degradado_sin_nombre_2-20" data-name="Degradado sin nombre 2" x1="48.36" y1="253.82" x2="149.37" y2="172.45" xlink:href="#Degradado_sin_nombre_2"/>
    <linearGradient id="Degradado_sin_nombre_2-21" data-name="Degradado sin nombre 2" x1="35.06" y1="237.31" x2="136.07" y2="155.94" xlink:href="#Degradado_sin_nombre_2"/>
    <linearGradient id="Degradado_sin_nombre_2-22" data-name="Degradado sin nombre 2" x1="22.86" y1="222.16" x2="123.87" y2="140.8" xlink:href="#Degradado_sin_nombre_2"/>
    <linearGradient id="Degradado_sin_nombre_2-23" data-name="Degradado sin nombre 2" x1="6.33" y1="201.65" x2="107.34" y2="120.28" xlink:href="#Degradado_sin_nombre_2"/>
    <linearGradient id="Degradado_sin_nombre_2-24" data-name="Degradado sin nombre 2" x1="5.97" y1="201.2" x2="106.98" y2="119.83" xlink:href="#Degradado_sin_nombre_2"/>
    <linearGradient id="Degradado_sin_nombre_2-25" data-name="Degradado sin nombre 2" x1="1.81" y1="196.03" x2="102.81" y2="114.66" xlink:href="#Degradado_sin_nombre_2"/>
    <linearGradient id="Degradado_sin_nombre_2-26" data-name="Degradado sin nombre 2" x1="11" y1="207.44" x2="112.01" y2="126.08" xlink:href="#Degradado_sin_nombre_2"/>
    <linearGradient id="Degradado_sin_nombre_2-27" data-name="Degradado sin nombre 2" x1="16.42" y1="214.17" x2="117.43" y2="132.81" xlink:href="#Degradado_sin_nombre_2"/>
    <linearGradient id="Degradado_sin_nombre_2-28" data-name="Degradado sin nombre 2" x1="29.93" y1="230.94" x2="130.94" y2="149.58" xlink:href="#Degradado_sin_nombre_2"/>
    <linearGradient id="Degradado_sin_nombre_2-29" data-name="Degradado sin nombre 2" x1="40.23" y1="243.72" x2="141.24" y2="162.36" xlink:href="#Degradado_sin_nombre_2"/>
    <linearGradient id="Degradado_sin_nombre_2-30" data-name="Degradado sin nombre 2" x1="55.4" y1="262.56" x2="156.41" y2="181.2" xlink:href="#Degradado_sin_nombre_2"/>
    <linearGradient id="Degradado_sin_nombre_2-31" data-name="Degradado sin nombre 2" x1="70.33" y1="281.09" x2="171.34" y2="199.73" xlink:href="#Degradado_sin_nombre_2"/>
    <linearGradient id="Degradado_sin_nombre_2-32" data-name="Degradado sin nombre 2" x1="77.55" y1="290.06" x2="178.56" y2="208.69" xlink:href="#Degradado_sin_nombre_2"/>
    <linearGradient id="Degradado_sin_nombre_2-33" data-name="Degradado sin nombre 2" x1="90.12" y1="305.66" x2="191.13" y2="224.3" xlink:href="#Degradado_sin_nombre_2"/>
    <linearGradient id="Degradado_sin_nombre_2-34" data-name="Degradado sin nombre 2" x1="2.38" y1="196.74" x2="103.38" y2="115.37" xlink:href="#Degradado_sin_nombre_2"/>
    <linearGradient id="Degradado_sin_nombre_2-35" data-name="Degradado sin nombre 2" x1="9.23" y1="205.24" x2="110.23" y2="123.87" xlink:href="#Degradado_sin_nombre_2"/>
    <linearGradient id="Degradado_sin_nombre_2-36" data-name="Degradado sin nombre 2" x1="38.73" y1="241.87" x2="139.74" y2="160.5" xlink:href="#Degradado_sin_nombre_2"/>
    <linearGradient id="Degradado_sin_nombre_2-37" data-name="Degradado sin nombre 2" x1="77.82" y1="290.39" x2="178.82" y2="209.02" xlink:href="#Degradado_sin_nombre_2"/>
    <linearGradient id="Degradado_sin_nombre_2-38" data-name="Degradado sin nombre 2" x1="16.69" y1="214.51" x2="117.7" y2="133.14" xlink:href="#Degradado_sin_nombre_2"/>
    <linearGradient id="Degradado_sin_nombre_2-39" data-name="Degradado sin nombre 2" x1="38.25" y1="241.26" x2="139.25" y2="159.9" xlink:href="#Degradado_sin_nombre_2"/>
    <linearGradient id="Degradado_sin_nombre_2-40" data-name="Degradado sin nombre 2" x1="68.34" y1="278.62" x2="169.35" y2="197.26" xlink:href="#Degradado_sin_nombre_2"/>
    <linearGradient id="Degradado_sin_nombre_2-41" data-name="Degradado sin nombre 2" x1="90.34" y1="305.93" x2="191.35" y2="224.56" xlink:href="#Degradado_sin_nombre_2"/>
    <linearGradient id="Degradado_sin_nombre_2-42" data-name="Degradado sin nombre 2" x1="100.91" y1="319.06" x2="201.92" y2="237.69" xlink:href="#Degradado_sin_nombre_2"/>
    <linearGradient id="Degradado_sin_nombre_2-43" data-name="Degradado sin nombre 2" x1="17.34" y1="215.31" x2="118.35" y2="133.94" xlink:href="#Degradado_sin_nombre_2"/>
    <linearGradient id="Degradado_sin_nombre_2-44" data-name="Degradado sin nombre 2" x1="11" y1="207.44" x2="112" y2="126.07" xlink:href="#Degradado_sin_nombre_2"/>
    <linearGradient id="Degradado_sin_nombre_2-45" data-name="Degradado sin nombre 2" x1="1.84" y1="196.07" x2="102.85" y2="114.71" xlink:href="#Degradado_sin_nombre_2"/>
    <linearGradient id="Degradado_sin_nombre_2-46" data-name="Degradado sin nombre 2" x1="30.16" y1="231.22" x2="131.16" y2="149.86" xlink:href="#Degradado_sin_nombre_2"/>
    <linearGradient id="Degradado_sin_nombre_2-47" data-name="Degradado sin nombre 2" x1="40.23" y1="243.72" x2="141.23" y2="162.35" xlink:href="#Degradado_sin_nombre_2"/>
    <linearGradient id="Degradado_sin_nombre_2-48" data-name="Degradado sin nombre 2" x1="57.47" y1="265.13" x2="158.48" y2="183.76" xlink:href="#Degradado_sin_nombre_2"/>
    <linearGradient id="Degradado_sin_nombre_2-49" data-name="Degradado sin nombre 2" x1="72.93" y1="284.32" x2="173.94" y2="202.95" xlink:href="#Degradado_sin_nombre_2"/>
    <linearGradient id="Degradado_sin_nombre_2-50" data-name="Degradado sin nombre 2" x1="78.96" y1="291.8" x2="179.97" y2="210.44" xlink:href="#Degradado_sin_nombre_2"/>
    <linearGradient id="Degradado_sin_nombre_2-51" data-name="Degradado sin nombre 2" x1="91.64" y1="307.55" x2="192.65" y2="226.18" xlink:href="#Degradado_sin_nombre_2"/>
    <linearGradient id="Degradado_sin_nombre_2-52" data-name="Degradado sin nombre 2" x1="92.76" y1="308.94" x2="193.77" y2="227.57" xlink:href="#Degradado_sin_nombre_2"/>
    <linearGradient id="Degradado_sin_nombre_2-53" data-name="Degradado sin nombre 2" x1="101.11" y1="319.3" x2="202.12" y2="237.94" xlink:href="#Degradado_sin_nombre_2"/>
    <linearGradient id="Degradado_sin_nombre_2-54" data-name="Degradado sin nombre 2" x1="93.62" y1="310" x2="194.62" y2="228.63" xlink:href="#Degradado_sin_nombre_2"/>
    <linearGradient id="Degradado_sin_nombre_2-55" data-name="Degradado sin nombre 2" x1="89.68" y1="305.11" x2="190.68" y2="223.74" xlink:href="#Degradado_sin_nombre_2"/>
    <linearGradient id="Degradado_sin_nombre_2-56" data-name="Degradado sin nombre 2" x1="5.47" y1="200.57" x2="106.47" y2="119.2" xlink:href="#Degradado_sin_nombre_2"/>
    <linearGradient id="Degradado_sin_nombre_2-57" data-name="Degradado sin nombre 2" x1="4.05" y1="198.82" x2="105.06" y2="117.45" xlink:href="#Degradado_sin_nombre_2"/>
    <linearGradient id="Degradado_sin_nombre_2-58" data-name="Degradado sin nombre 2" x1="21.41" y1="220.36" x2="122.41" y2="138.99" xlink:href="#Degradado_sin_nombre_2"/>
    <linearGradient id="Degradado_sin_nombre_2-59" data-name="Degradado sin nombre 2" x1="32.55" y1="234.2" x2="133.56" y2="152.83" xlink:href="#Degradado_sin_nombre_2"/>
    <linearGradient id="Degradado_sin_nombre_2-60" data-name="Degradado sin nombre 2" x1="46.79" y1="251.87" x2="147.8" y2="170.5" xlink:href="#Degradado_sin_nombre_2"/>
    <linearGradient id="Degradado_sin_nombre_2-61" data-name="Degradado sin nombre 2" x1="61.65" y1="270.31" x2="162.65" y2="188.94" xlink:href="#Degradado_sin_nombre_2"/>
    <linearGradient id="Degradado_sin_nombre_2-62" data-name="Degradado sin nombre 2" x1="74.32" y1="286.04" x2="175.33" y2="204.68" xlink:href="#Degradado_sin_nombre_2"/>
    <linearGradient id="Degradado_sin_nombre_2-63" data-name="Degradado sin nombre 2" x1="47.23" y1="252.41" x2="148.23" y2="171.04" xlink:href="#Degradado_sin_nombre_2"/>
    <linearGradient id="Degradado_sin_nombre_2-64" data-name="Degradado sin nombre 2" x1="54.67" y1="261.65" x2="155.68" y2="180.29" xlink:href="#Degradado_sin_nombre_2"/>
    <linearGradient id="Degradado_sin_nombre_2-65" data-name="Degradado sin nombre 2" x1="42.29" y1="246.28" x2="143.3" y2="164.92" xlink:href="#Degradado_sin_nombre_2"/>
    <linearGradient id="Degradado_sin_nombre_2-66" data-name="Degradado sin nombre 2" x1="38.66" y1="241.78" x2="139.67" y2="160.41" xlink:href="#Degradado_sin_nombre_2"/>
    <linearGradient id="Degradado_sin_nombre_2-67" data-name="Degradado sin nombre 2" x1="17.26" y1="215.21" x2="118.26" y2="133.84" xlink:href="#Degradado_sin_nombre_2"/>
    <linearGradient id="Degradado_sin_nombre_2-68" data-name="Degradado sin nombre 2" x1="3.3" y1="197.89" x2="104.31" y2="116.52" xlink:href="#Degradado_sin_nombre_2"/>
    <linearGradient id="Degradado_sin_nombre_2-69" data-name="Degradado sin nombre 2" x1="19.53" y1="218.03" x2="120.54" y2="136.66" xlink:href="#Degradado_sin_nombre_2"/>
    <linearGradient id="Degradado_sin_nombre_2-70" data-name="Degradado sin nombre 2" x1="19.85" y1="218.42" x2="120.85" y2="137.06" xlink:href="#Degradado_sin_nombre_2"/>
    <linearGradient id="Degradado_sin_nombre_2-71" data-name="Degradado sin nombre 2" x1="39.55" y1="242.88" x2="140.56" y2="161.51" xlink:href="#Degradado_sin_nombre_2"/>
    <linearGradient id="Degradado_sin_nombre_2-72" data-name="Degradado sin nombre 2" x1="63.74" y1="272.92" x2="164.75" y2="191.55" xlink:href="#Degradado_sin_nombre_2"/>
    <linearGradient id="Degradado_sin_nombre_2-73" data-name="Degradado sin nombre 2" x1="64.69" y1="274.09" x2="165.69" y2="192.72" xlink:href="#Degradado_sin_nombre_2"/>
    <linearGradient id="Degradado_sin_nombre_2-74" data-name="Degradado sin nombre 2" x1="89.7" y1="305.14" x2="190.71" y2="223.77" xlink:href="#Degradado_sin_nombre_2"/>
    <linearGradient id="Degradado_sin_nombre_2-75" data-name="Degradado sin nombre 2" x1="105.08" y1="324.22" x2="206.08" y2="242.86" xlink:href="#Degradado_sin_nombre_2"/>
    <linearGradient id="Degradado_sin_nombre_2-76" data-name="Degradado sin nombre 2" x1="83.78" y1="297.79" x2="184.79" y2="216.42" xlink:href="#Degradado_sin_nombre_2"/>
    <linearGradient id="Degradado_sin_nombre_2-77" data-name="Degradado sin nombre 2" x1="85.77" y1="300.26" x2="186.78" y2="218.9" xlink:href="#Degradado_sin_nombre_2"/>
    <linearGradient id="Degradado_sin_nombre_2-78" data-name="Degradado sin nombre 2" x1="64.47" y1="273.82" x2="165.48" y2="192.46" xlink:href="#Degradado_sin_nombre_2"/>
    <linearGradient id="Degradado_sin_nombre_2-79" data-name="Degradado sin nombre 2" x1="39.58" y1="242.92" x2="140.59" y2="161.55" xlink:href="#Degradado_sin_nombre_2"/>
    <linearGradient id="Degradado_sin_nombre_2-80" data-name="Degradado sin nombre 2" x1="334.99" y1="77.64" x2="-36.31" y2="269.37" xlink:href="#Degradado_sin_nombre_2"/>
  </defs>
  <g class="cls-83">
    <g id="vuelta">
      <g>
        <g>
          <circle class="cls-145" cx="161.98" cy="161.98" r="161"/>
          <path class="cls-82" d="M161.98.98C73.06.98.98,73.06.98,161.98s72.08,161,161,161,161-72.08,161-161S250.89.98,161.98.98ZM161.98,291.02c-71.27,0-129.04-57.77-129.04-129.04S90.71,32.93,161.98,32.93s129.04,57.77,129.04,129.04-57.77,129.04-129.04,129.04Z"/>
          <circle class="cls-59" cx="161.98" cy="161.98" r="123.5"/>
          <circle class="cls-58" cx="161.98" cy="161.98" r="129.04" transform="translate(-67.09 161.98) rotate(-45)"/>
          <circle class="cls-57" cx="161.98" cy="161.98" r="160.98"/>
          <g>
            <g class="cls-113">
              <path class="cls-53" d="M309.59,176.63l-2.32.87-.61,2.4-1.53-1.95-2.47.14,1.37-2-.93-2.23,2.39.61s.48-.4.95-.8c.46-.41.92-.81.92-.81,0,0,.07.62.09,1.23.03.62.05,1.23.05,1.23l2.1,1.31Z"/>
              <path class="cls-73" d="M307.55,190.59l-2.4.65-.85,2.32-1.33-2.09-2.47-.1,1.56-1.86-.35-1.16c-.17-.57-.36-1.15-.36-1.15l2.33.84s.5-.36.99-.71c.49-.36.99-.72.99-.72,0,0,0,.62-.01,1.24,0,.62-.06,1.24-.06,1.24l1.96,1.5Z"/>
              <path class="cls-120" d="M304.19,204.31l-2.46.41-1.07,2.23-1.12-2.2-2.45-.34,1.74-1.7s-.12-.59-.23-1.18c-.12-.59-.28-1.19-.28-1.19l2.25,1.06,2.11-1.24s-.07.62-.14,1.23c-.07.62-.15,1.23-.15,1.23l1.8,1.68Z"/>
              <path class="cls-104" d="M299.53,217.64l-2.49.18-1.29,2.11-.9-2.3-2.41-.57,1.9-1.52s-.04-.6-.13-1.2l-.17-1.21,2.13,1.27,2.22-1.03-.52,2.43,1.64,1.85Z"/>
              <path class="cls-87" d="M293.62,230.47l-2.5-.06-1.49,1.98-.67-2.37-2.35-.8,2.04-1.33s0-.6-.02-1.22c-.02-.61-.05-1.22-.05-1.22l2,1.47,2.32-.81-.75,2.36s.37.5.75,1l.72,1Z"/>
              <path class="cls-111" d="M286.51,242.67l-2.48-.3-1.67,1.83-.44-2.42-2.26-1.02,2.16-1.13s.05-.6.08-1.22c.03-.61.07-1.22.07-1.22l1.85,1.65,2.39-.59-.98,2.28,1.28,2.14Z"/>
              <polygon class="cls-26" points="278.27 254.13 275.83 253.6 273.98 255.25 273.78 252.8 271.62 251.57 273.89 250.66 274.27 248.24 275.95 250.06 278.39 249.71 277.19 251.88 278.27 254.13"/>
              <path class="cls-116" d="M45.01,253.26l1.09-2.24-1.18-2.18,2.43.37,1.7-1.81s.09.6.18,1.21c.09.61.19,1.21.19,1.21l2.25.94-2.16,1.21-.23,2.45-1.83-1.67-2.44.52Z"/>
              <path class="cls-27" d="M36.85,241.73l1.29-2.13-.96-2.29,2.38.6,1.86-1.64s.03.61.06,1.22c.02.61.08,1.22.08,1.22l2.15,1.15-2.27,1-.46,2.42-1.66-1.84-2.48.28Z"/>
              <path class="cls-3" d="M29.83,229.48l.73-.99c.38-.5.75-1,.75-1l-.74-2.37,2.31.83,2.01-1.45s-.03.61-.06,1.22c-.04.62-.03,1.21-.03,1.21l2.03,1.35-2.35.78-.69,2.37-1.48-1.99-2.5.05Z"/>
              <path class="cls-96" d="M24.01,216.61l1.65-1.84-.5-2.43,2.22,1.05,2.14-1.25s-.09.6-.18,1.21c-.09.61-.14,1.2-.14,1.2l1.89,1.54-2.41.55-.91,2.29-1.27-2.12-2.49-.19Z"/>
              <path class="cls-2" d="M19.45,203.25l1.81-1.67-.26-2.47,2.1,1.26,2.25-1.04s-.15.59-.29,1.18c-.12.59-.24,1.18-.24,1.18l1.73,1.71-2.45.32-1.13,2.19-1.06-2.24-2.45-.43Z"/>
              <path class="cls-142" d="M16.18,189.51l1.97-1.49s-.05-.61-.04-1.24c0-.62,0-1.24,0-1.24l1.96,1.45,2.34-.82s-.21.58-.38,1.15c-.18.58-.35,1.15-.35,1.15l1.55,1.87-2.47.08-1.34,2.08-.83-2.33-2.4-.67Z"/>
              <path class="cls-102" d="M14.25,175.52l2.1-1.29.06-1.23c.04-.62.11-1.23.11-1.23,0,0,.45.41.9.82.47.4.94.81.94.81l2.39-.59-.94,2.22,1.36,2.01-2.47-.15-1.55,1.94-.59-2.4-2.32-.89Z"/>
              <polygon class="cls-154" points="13.65 161.42 15.88 160.34 16.24 157.89 17.96 159.69 20.4 159.32 19.24 161.45 20.39 163.58 17.95 163.19 16.22 164.97 15.87 162.53 13.65 161.42"/>
              <path class="cls-119" d="M14.37,147.33l2.32-.87.61-2.4,1.53,1.95,2.47-.14-1.37,2,.93,2.23-2.39-.61s-.48.4-.95.8c-.46.41-.92.81-.92.81,0,0-.07-.62-.09-1.23-.03-.62-.05-1.23-.05-1.23l-2.1-1.31Z"/>
              <path class="cls-100" d="M16.4,133.36l2.4-.65.85-2.32,1.33,2.09,2.47.1-1.56,1.86s.17.58.35,1.16c.17.57.36,1.15.36,1.15l-2.33-.84s-.5.36-.99.71c-.49.36-.99.72-.99.72,0,0,0-.62.01-1.24,0-.62.05-1.24.05-1.24l-1.96-1.5Z"/>
              <path class="cls-130" d="M19.76,119.64l2.46-.41,1.07-2.23,1.12,2.2,2.45.34-1.74,1.7s.12.59.23,1.18c.12.59.28,1.19.28,1.19l-2.25-1.06-2.11,1.24s.07-.62.14-1.23c.07-.62.15-1.23.15-1.23l-1.8-1.68Z"/>
              <path class="cls-76" d="M24.42,106.31l2.49-.18,1.29-2.11.9,2.3,2.41.57-1.9,1.52s.04.6.13,1.2c.08.6.17,1.21.17,1.21l-2.13-1.27-2.22,1.03.52-2.43-1.64-1.85Z"/>
              <path class="cls-147" d="M30.33,93.49l2.5.06,1.49-1.98.67,2.37,2.35.8-2.04,1.33s0,.6.02,1.22c.02.61.05,1.22.05,1.22l-2-1.47-2.32.81.75-2.36s-.37-.5-.75-1c-.36-.5-.72-1-.72-1Z"/>
              <path class="cls-77" d="M37.45,81.29l2.48.3,1.67-1.83.44,2.42,2.26,1.02-2.16,1.13s-.05.6-.09,1.22c-.03.61-.07,1.22-.07,1.22l-1.85-1.65-2.39.59.98-2.28-1.28-2.14Z"/>
              <polygon class="cls-24" points="45.69 69.82 48.13 70.36 49.97 68.7 50.18 71.15 52.33 72.38 50.07 73.3 49.69 75.71 48 73.89 45.57 74.25 46.76 72.07 45.69 69.82"/>
              <polygon class="cls-48" points="54.98 59.19 57.36 59.95 59.35 58.48 59.32 60.94 61.35 62.36 59.01 63.06 58.4 65.43 56.9 63.46 54.44 63.58 55.84 61.53 54.98 59.19"/>
              <polygon class="cls-30" points="65.23 49.48 67.53 50.47 69.65 49.19 69.39 51.63 71.27 53.25 68.88 53.72 68.05 56.02 66.74 53.92 64.28 53.81 65.87 51.9 65.23 49.48"/>
              <path class="cls-4" d="M76.36,40.79l2.19,1.19,2.24-1.07-.49,2.41,1.72,1.78-1.21.12c-.61.06-1.21.13-1.21.13l-1.04,2.21-1.11-2.22-2.44-.34,1.76-1.75-.4-2.47Z"/>
              <path class="cls-98" d="M88.26,33.2s.51.34,1.03.68c.52.35,1.03.7,1.03.7l2.33-.85-.72,2.35,1.55,1.94s-.61,0-1.22,0c-.62,0-1.22.02-1.22.02l-1.25,2.1-.89-2.31-2.39-.57,1.92-1.57-.16-2.49Z"/>
              <path class="cls-61" d="M236.65,33.74l-.18,2.49,1.9,1.58-2.4.56-.91,2.3-1.23-2.11s-.6-.03-1.22-.03h-1.22s1.56-1.94,1.56-1.94l-.7-2.35,2.32.87,2.07-1.37Z"/>
              <path class="cls-148" d="M248.5,41.43l-.42,2.46,1.74,1.76-2.44.32-1.12,2.21-1.02-2.22s-.61-.08-1.21-.14l-1.21-.13,1.74-1.77-.47-2.41,2.23,1.09,2.2-1.18Z"/>
              <polygon class="cls-140" points="259.56 50.21 258.91 52.62 260.47 54.54 258.02 54.63 256.69 56.72 255.88 54.42 253.49 53.92 255.38 52.33 255.14 49.88 257.26 51.17 259.56 50.21"/>
              <polygon class="cls-85" points="269.74 59.99 268.86 62.33 270.24 64.39 267.79 64.25 266.27 66.2 265.68 63.83 263.34 63.12 265.38 61.71 265.37 59.25 267.35 60.74 269.74 59.99"/>
              <path class="cls-70" d="M278.95,70.69l-1.09,2.24,1.18,2.18-2.43-.37-1.7,1.81s-.09-.6-.18-1.21c-.09-.61-.19-1.21-.19-1.21l-2.25-.94,2.16-1.21.23-2.45,1.83,1.67,2.44-.52Z"/>
              <path class="cls-60" d="M287.1,82.22l-1.29,2.13.96,2.29-2.38-.6-1.86,1.64s-.03-.61-.06-1.22c-.02-.61-.08-1.22-.08-1.22l-2.15-1.15,2.27-1,.46-2.42,1.66,1.84,2.48-.28Z"/>
              <path class="cls-129" d="M294.12,94.47s-.36.5-.73.99c-.38.5-.75,1-.75,1l.74,2.37-2.31-.83-2.01,1.45.06-1.22c.04-.62.03-1.21.03-1.21l-2.03-1.35,2.35-.78.69-2.36,1.48,1.99,2.5-.05Z"/>
              <path class="cls-32" d="M299.94,107.34l-1.65,1.84.5,2.43-2.22-1.05-2.14,1.25s.09-.6.18-1.21c.09-.61.14-1.2.14-1.2l-1.89-1.54,2.41-.55.91-2.29,1.27,2.12,2.49.19Z"/>
              <path class="cls-75" d="M304.51,120.7l-1.81,1.67.26,2.47-2.1-1.26-2.25,1.04s.14-.59.29-1.19c.12-.59.24-1.18.24-1.18l-1.73-1.71,2.45-.32,1.13-2.19,1.06,2.24,2.45.43Z"/>
              <path class="cls-37" d="M307.77,134.44l-1.97,1.49s.05.61.04,1.24c0,.62,0,1.24,0,1.24l-1.96-1.45-2.34.82s.21-.58.38-1.15l.35-1.15-1.55-1.87,2.47-.08,1.34-2.08.83,2.33,2.4.67Z"/>
              <path class="cls-29" d="M309.7,148.43l-2.1,1.29s-.03.62-.06,1.23c-.04.62-.11,1.23-.11,1.23,0,0-.45-.41-.9-.82-.47-.4-.94-.81-.94-.81l-2.39.59.94-2.22-1.36-2.01,2.47.15,1.54-1.94.59,2.4,2.32.89Z"/>
              <polygon class="cls-141" points="310.3 162.53 308.08 163.62 307.72 166.06 305.99 164.26 303.55 164.63 304.71 162.51 303.56 160.38 306 160.76 307.74 158.98 308.08 161.42 310.3 162.53"/>
            </g>
            <g class="cls-113">
              <path class="cls-12" d="M126.72,304.81l-.51-2.43-2.28-.96,2.16-1.22.24-2.46,1.77,1.65,2.34-.58-.97,2.27s.32.53.65,1.06c.33.52.67,1.03.67,1.03,0,0-.62-.02-1.23-.1-.61-.07-1.23-.14-1.23-.14l-1.61,1.87Z"/>
              <path class="cls-23" d="M113.21,300.68l-.28-2.47-2.17-1.19,2.26-1,.47-2.43,1.6,1.83,1.19-.17c.59-.08,1.19-.18,1.19-.18l-1.18,2.18s.28.55.55,1.09c.28.54.57,1.09.57,1.09,0,0-.61-.1-1.22-.2-.62-.09-1.21-.24-1.21-.24l-1.78,1.71Z"/>
              <path class="cls-68" d="M100.17,295.29l-.04-2.49-2.04-1.4,2.35-.77.7-2.37,1.42,1.98s.6-.02,1.2-.05c.6-.03,1.21-.09,1.21-.09l-1.39,2.06.91,2.27s-.6-.16-1.2-.32c-.6-.16-1.2-.33-1.2-.33l-1.93,1.52Z"/>
              <path class="cls-131" d="M87.69,288.66l.2-2.49-1.89-1.59,2.41-.54.93-2.3,1.22,2.11s.6.05,1.21.06l1.22.02-1.58,1.92.68,2.35-2.32-.88-2.07,1.34Z"/>
              <path class="cls-14" d="M75.91,280.88l.44-2.46-1.73-1.77,2.44-.31,1.14-2.2,1.01,2.22s.59.1,1.2.16c.61.07,1.21.14,1.21.14l-1.75,1.76.45,2.41-2.22-1.1s-.55.29-1.1.59l-1.1.56Z"/>
              <path class="cls-46" d="M64.93,272l.67-2.41-1.55-1.93,2.46-.07,1.35-2.08.79,2.31s.59.14,1.19.27c.6.13,1.19.25,1.19.25l-1.91,1.58.22,2.45-2.1-1.31-2.31.94Z"/>
              <polygon class="cls-138" points="54.84 262.12 55.74 259.79 54.38 257.72 56.83 257.88 58.37 255.94 58.94 258.32 61.26 259.06 59.21 260.45 59.2 262.91 57.23 261.4 54.84 262.12"/>
              <path class="cls-69" d="M100.9,26.32l1.9,1.56,2.41-.6-.95,2.26,1.35,2.09s-.61-.06-1.21-.12c-.6-.04-1.2-.07-1.2-.07l-1.45,1.95-.66-2.39-2.33-.82,2.07-1.36.09-2.49Z"/>
              <path class="cls-103" d="M114.05,21.18l1.74,1.74s.6-.13,1.22-.21c.61-.09,1.23-.18,1.23-.18l-1.16,2.15,1.14,2.21s-.6-.13-1.19-.22c-.6-.1-1.19-.19-1.19-.19l-1.64,1.8-.43-2.44-2.24-1.04,2.19-1.15.32-2.47Z"/>
              <path class="cls-86" d="M127.63,17.32l1.57,1.9s.61-.06,1.23-.12c.62-.04,1.24-.06,1.24-.06,0,0-.34.51-.69,1.01-.34.52-.67,1.04-.67,1.04l.92,2.29-2.33-.62-1.8,1.62-.19-2.46-2.13-1.26,2.29-.92.56-2.42Z"/>
              <polygon class="cls-40" points="141.51 14.76 142.9 16.81 145.37 16.83 143.83 18.78 144.53 21.15 142.27 20.3 140.32 21.73 140.36 19.26 138.35 17.79 140.73 17.11 141.51 14.76"/>
              <path class="cls-11" d="M155.57,13.5l1.19,2.18,2.46.27-1.72,1.79.48,2.42-2.17-1.07-2.08,1.23.27-2.45s-.46-.42-.93-.83c-.47-.4-.93-.8-.93-.8,0,0,.6-.16,1.21-.26.61-.11,1.22-.22,1.22-.22l1-2.26Z"/>
              <path class="cls-80" d="M169.68,13.57l.98,2.29,2.42.51-1.88,1.61.25,2.46-2.06-1.29s-.55.25-1.1.51c-.55.25-1.09.52-1.09.52l.51-2.42s-.42-.44-.84-.88c-.43-.44-.85-.88-.85-.88,0,0,.61-.08,1.23-.16.62-.09,1.23-.12,1.23-.12l1.21-2.15Z"/>
              <path class="cls-34" d="M183.73,14.99l.75,2.38,2.36.75-2.02,1.41v2.48s-1.92-1.49-1.92-1.49c0,0-.57.2-1.14.39-.57.21-1.14.44-1.14.44l.74-2.37-1.52-1.92s.62-.02,1.24-.04c.62-.02,1.24-.03,1.24-.03l1.41-2.02Z"/>
              <path class="cls-22" d="M197.59,17.74l.52,2.44,2.27.98-2.15,1.21-.23,2.47-1.77-1.67s-.58.13-1.17.29c-.59.17-1.17.33-1.17.33l.96-2.29-1.33-2.06,2.47.18,1.6-1.88Z"/>
              <path class="cls-89" d="M211.11,21.81l.28,2.48,2.17,1.2-2.25,1-.46,2.43-1.6-1.84s-.59.07-1.2.19l-1.2.22,1.17-2.18-1.13-2.18,2.44.42s.44-.44.89-.88c.44-.43.89-.85.89-.85Z"/>
              <path class="cls-44" d="M224.18,27.15l.05,2.5,2.04,1.4-2.34.77-.69,2.38-1.42-1.99s-.61.03-1.22.09c-.61.05-1.21.1-1.21.1l1.38-2.06-.91-2.28,2.39.65,1.94-1.56Z"/>
              <path class="cls-114" d="M269.6,264.88l-2.37-.79-2,1.46.05-2.46-2.01-1.45,2.35-.68s.17-.59.32-1.18c.15-.59.31-1.18.31-1.18l1.49,1.98,2.46-.1-1.41,2.04.83,2.35Z"/>
              <polygon class="cls-18" points="259.25 274.48 256.96 273.47 254.83 274.73 255.11 272.29 253.24 270.66 255.64 270.21 256.49 267.92 257.78 270.03 260.24 270.17 258.64 272.06 259.25 274.48"/>
              <polygon class="cls-1" points="248.04 283.06 245.86 281.84 243.61 282.9 244.12 280.49 242.42 278.69 244.85 278.47 245.91 276.27 247 278.5 249.43 278.86 247.66 280.59 248.04 283.06"/>
              <path class="cls-97" d="M236.06,290.55l-2.05-1.42-2.34.83.74-2.34-1.53-1.95s.61,0,1.22,0c.61,0,1.22,0,1.22,0l1.27-2.09.87,2.32,2.39.6-1.93,1.55.14,2.49Z"/>
              <path class="cls-150" d="M223.43,296.86l-1.91-1.6-2.4.6.96-2.26-1.34-2.09s.61.06,1.21.12c.61.07,1.21.11,1.21.11l1.46-1.96.65,2.39,2.32.82-2.07,1.36-.1,2.5Z"/>
              <path class="cls-21" d="M210.26,301.95s-.44-.43-.87-.87c-.44-.45-.87-.9-.87-.9l-2.45.37,1.17-2.16-1.13-2.21s.6.12,1.2.24c.6.13,1.2.21,1.2.21l1.64-1.81.42,2.44,2.23,1.04-2.19,1.16-.33,2.47Z"/>
              <path class="cls-7" d="M196.66,305.76l-1.56-1.91-2.48.13,1.37-2.03-.92-2.31s.58.18,1.17.36c.59.18,1.17.32,1.17.32l1.8-1.64.18,2.47,2.12,1.25-2.29.94-.57,2.43Z"/>
              <path class="cls-88" d="M182.76,308.25l-1.37-2.04-2.48-.11,1.56-1.89-.69-2.38s.56.23,1.13.47c.56.21,1.13.42,1.13.42l1.95-1.45-.06,2.47,2,1.45-2.37.71-.8,2.36Z"/>
              <path class="cls-101" d="M168.69,309.39l-1.17-2.17s-.61-.05-1.23-.15c-.61-.09-1.23-.18-1.23-.18l1.73-1.72-.46-2.44s.54.3,1.08.55l1.09.53,2.08-1.25-.29,2.46,1.85,1.64-2.43.47-1.02,2.27Z"/>
              <path class="cls-31" d="M154.57,309.19l-.96-2.27s-.61-.12-1.21-.24c-.6-.13-1.2-.3-1.2-.3,0,0,.47-.38.95-.77l.94-.81-.23-2.45,2.05,1.26,2.19-1.04-.53,2.42,1.68,1.82-2.46.22-1.23,2.16Z"/>
              <polygon class="cls-10" points="140.54 307.65 139.8 305.28 137.44 304.56 139.48 303.12 139.49 300.66 141.41 302.12 143.69 301.31 142.94 303.66 144.44 305.65 141.97 305.62 140.54 307.65"/>
            </g>
          </g>
          <path class="cls-81" d="M160.98,0C136.77,0,113.8,5.35,93.15,14.9c-.03,1.43-.05,2.87-.05,4.31,0,116.15,94.49,210.64,210.64,210.64,1.44,0,2.87-.03,4.31-.05,9.56-20.64,14.9-43.62,14.9-67.82C322.95,72.66,250.29,0,160.98,0Z"/>
        </g>
        <path class="cls-79" d="M145.58,142.34c.46,1.03-.51,2.39-1.64,2.29-1.13-.1-1.85-1.6-1.22-2.54l.06-.09c.69-.9,2.34-.7,2.8.34Z"/>
        <path class="cls-146" d="M169.33,148.07c.34.51-.05,1.33-.67,1.38-.61.05-1.14-.68-.89-1.25.25-.56,1.15-.67,1.52-.18l.03.05Z"/>
        <path class="cls-122" d="M191.09,145.29c.34.51-.05,1.33-.67,1.38-.61.05-1.14-.68-.89-1.25.25-.56,1.15-.67,1.53-.18l.03.05Z"/>
        <path class="cls-47" d="M174.16,143.91c.49.74-.07,1.91-.95,1.98s-1.64-.98-1.28-1.79c.35-.81,1.65-.96,2.18-.26l.05.07Z"/>
        <path class="cls-115" d="M181.2,142.09c.63.94-.09,2.45-1.22,2.54-1.13.1-2.1-1.26-1.64-2.29.46-1.04,2.11-1.23,2.8-.34l.06.09Z"/>
        <path class="cls-74" d="M151.99,144.1c.36.81-.4,1.87-1.28,1.79s-1.44-1.25-.95-1.98l.05-.07c.54-.7,1.83-.55,2.18.26Z"/>
        <path class="cls-55" d="M139.15,143.51c.35.81-.4,1.87-1.28,1.79-.88-.08-1.44-1.25-.95-1.98l.05-.07c.54-.7,1.83-.55,2.19.26Z"/>
        <path class="cls-51" d="M156.15,148.21c.25.57-.28,1.3-.89,1.25-.61-.06-1.01-.87-.67-1.38l.03-.05c.37-.49,1.27-.38,1.52.18Z"/>
        <path class="cls-78" d="M187.01,143.32c.49.74-.07,1.91-.95,1.98-.88.07-1.64-.98-1.28-1.79.36-.81,1.65-.96,2.19-.26l.05.07Z"/>
        <path class="cls-84" d="M134.39,145.42c.25.57-.28,1.3-.89,1.25-.61-.06-1.01-.87-.67-1.38l.04-.05c.37-.49,1.27-.38,1.52.18Z"/>
        <path class="cls-15" d="M171.93,192.63c-1.16.49-2.47.62-3.7.31-.71-.18-1.4-.5-2.13-.57-.85-.08-1.74.21-2.38.77-.28.24-.52.53-.87.65-.95.33-1.73-.8-2.64-1.23-1.35-.64-2.86.31-4.28.76-.93.29-1.94.35-2.9.18-.16-.03-.31-.06-.47-.1l.21-.98c.8-.79,1.6-1.57,2.4-2.36.95-.94,2.12-1.95,3.44-1.76,1.4.2,2.54,1.74,3.92,1.4.39-.09.72-.33,1.05-.54.9-.59,1.93-1.1,3-1.01,2.29.18,3.53,2.8,5.59,3.81l.21.44c-.15.08-.31.15-.47.22Z"/>
        <path class="cls-50" d="M189.73,216.39c-.76.42-1.53.83-2.31,1.21-1.33.66-2.69,1.26-4.06,1.82-2.54,1.03-5.16,1.88-7.8,2.58-.18.05-.37.1-.56.14-3.14.79-6.34,1.37-9.56,1.69-2.61.27-5.22.36-7.83.27-2.61-.08-5.22-.34-7.8-.8-.16-.03-.31-.06-.47-.09-1.83-.34-3.63-.79-5.39-1.33-3.65-1.13-7.17-2.67-10.49-4.57-2.47-1.41-4.83-3.02-7.06-4.79-1.62-1.29-3.18-2.68-4.65-4.14-1.46-1.44-2.85-2.97-4.14-4.57-1.81-2.22-3.45-4.57-4.9-7.03h0c-1.64-2.78-3.05-5.69-4.18-8.7-.91-2.39-1.64-4.86-2.19-7.36-.13-.59-.25-1.18-.35-1.77-.49-2.65-.78-5.31-.88-7.97-.13-3.26.03-6.51.47-9.72.49-3.67,1.33-7.28,2.49-10.8.86-2.59,1.89-5.12,3.1-7.58.64-1.3,1.32-2.58,2.05-3.84,1.53-2.63,3.27-5.17,5.19-7.56,2.07-2.59,4.37-5.02,6.86-7.25.26-.24.53-.48.8-.71,1.94-1.68,4.39-3.61,6.8-5.13.86-.55,1.7-1.03,2.52-1.44,1-.5,2-.96,3-1.37.2-.09.41-.17.61-.26,4.56-1.85,9.05-2.92,13.06-3.5,3.55-.52,6.72-.67,9.22-.66.65-.03,1.31-.04,1.97-.04,2.44,0,4.88.17,7.29.51,2.04.28,4.07.68,6.07,1.19,3.77.95,7.44,2.29,10.93,3.99,2.28,1.11,4.49,2.37,6.61,3.77,3.04,2.02,5.88,4.32,8.46,6.89,1.2,1.19,2.35,2.44,3.43,3.74.4.48.79.97,1.17,1.47,2.34,3.02,4.34,6.29,5.99,9.73,1.53,3.17,2.76,6.49,3.68,9.89.61,2.25,1.09,4.54,1.42,6.86.39,2.66.58,5.35.59,8.03,0,3.2-.26,6.39-.81,9.55-.13.72-.27,1.44-.42,2.16-.65,3.02-1.57,5.98-2.72,8.84-.92,2.27-1.98,4.48-3.19,6.62-1.5,2.68-3.22,5.23-5.13,7.63-.13.16-.25.32-.38.48-2.15,2.65-4.53,5.11-7.11,7.35-2.89,2.51-6.04,4.72-9.39,6.59Z"/>
        <path class="cls-95" d="M171.93,192.63c-.38.62-.77,1.25-1.16,1.87-.95,1.53-1.98,3.14-3.6,3.92-1.29.62-2.78.62-4.21.61-1.78-.01-3.65-.05-5.18-.95-.78-.46-1.43-1.12-2.06-1.77-.9-.93-1.8-1.86-2.7-2.78v-.02c.97.16,1.97.11,2.91-.18,1.42-.44,2.93-1.39,4.28-.76.92.43,1.69,1.56,2.64,1.23.34-.12.59-.41.87-.65.65-.56,1.53-.85,2.38-.77.73.07,1.42.38,2.13.57,1.22.31,2.54.18,3.7-.31Z"/>
        <path class="cls-17" d="M193.83,243.27l.08.03c-.21.56-.44,1.11-.69,1.65,0-3.61-1.56-7.2-4.21-9.66-2.42-2.24-5.58-3.49-8.32-5.32-2.75-1.83-5.25-4.66-5.11-7.96v-.02c2.65-.69,5.26-1.55,7.8-2.58l.09.22c-.93,2.7.92,5.58,3.06,7.48,2.14,1.9,4.73,3.45,6.07,5.98.59,1.13.9,2.39,1.18,3.63.48,2.16.87,4.53.08,6.54Z"/>
        <path class="cls-56" d="M190,216.74c-.09-.12-.18-.23-.27-.35,3.34-1.86,6.49-4.08,9.39-6.59h0c-.42,3.3,2.32,6.17,5.23,7.77,2.91,1.6,6.25,2.55,8.68,4.81,2.71,2.52,3.87,6.29,6.12,9.23,4.17,5.46,11.45,7.4,18.29,8.19.2.07.4.13.6.18-3.81.65-7.7,1.03-11.52.52s-7.61-1.99-10.38-4.67c-1.96-1.89-3.34-4.29-5.06-6.4-1.72-2.11-3.97-4.02-6.67-4.33-1.63-.18-3.27.23-4.9.07-2.99-.28-5.28-2.32-7.14-4.79-.68-1.28-1.47-2.51-2.37-3.66Z"/>
        <path class="cls-134" d="M238.55,213.25c.03.37.05.73.07,1.09-1.04-1.97-2.36-3.79-3.91-5.39-1.18-1.22-2.54-2.34-4.15-2.89-1.4-.48-2.91-.52-4.39-.42-3.52.23-7,1.14-10.52,1.03-3.53-.1-7.33-1.5-8.97-4.63l-.07-.06c1.91-2.41,3.63-4.96,5.13-7.63l.32.18c.95,3.06,4.29,4.7,7.44,5.27,3.14.57,6.45.42,9.45,1.53,4.97,1.84,8.16,6.82,9.61,11.93Z"/>
        <path class="cls-128" d="M257.83,194.74c0,.2,0,.39,0,.58-3.53-4.72-9.39-7.91-15.25-7.33-4.55.45-8.66,3.02-13.18,3.71-4.93.76-10.17-.89-13.78-4.33-.1.17-.18.34-.26.52l-.42-.17c1.15-2.86,2.07-5.82,2.72-8.84.16-.72.3-1.44.42-2.16,4.35,3.98,10.71,4.99,16.6,4.55,5.03-.38,10.58-1.57,14.74,1.27,1.69,1.16,2.93,2.86,4.05,4.58,1.6,2.45,3.04,4.99,4.33,7.61h.04Z"/>
        <path class="cls-132" d="M246.22,158.54c.21.22.41.45.6.68-2.99-1.13-6.48-.89-9.29.65-3.77,2.07-6.18,6.23-10.17,7.87-2.63,1.08-5.75.86-8.2-.56h-.29c0-2.68-.2-5.37-.59-8.03,1.91,1.05,4.21,1.25,6.37.92,2.2-.34,4.28-1.2,6.28-2.15,1.45-.69,2.89-1.43,4.45-1.78,3.69-.83,7.48.66,10.85,2.4Z"/>
        <path class="cls-94" d="M256.27,114.7c.78,4.26-.09,8.81-2.42,12.45-2.54,3.97-6.77,6.82-11.41,7.67-3.48.64-7.56.41-9.91,3.06-.72.82-1.19,1.84-1.67,2.82-1.4,2.87-3.11,5.64-5.45,7.81-1.97,1.83-4.43,3.21-7.06,3.64-.5.04-.99.09-1.49.14-.92-3.4-2.15-6.72-3.68-9.89l.51-.25c2.69-1.12,4.43-3.69,6.44-5.81,3.91-4.1,9.35-6.71,15-7.18,2.19-.18,4.4-.06,6.57-.36,7.17-.98,13.32-7,14.57-14.11Z"/>
        <path class="cls-49" d="M228.3,110.52c.15.13.3.26.45.38-2.87-.71-6.11.44-7.89,2.8-1.78,2.37-2.03,5.51-2.97,8.32-1.62,4.79-5.54,8.75-10.31,10.41l-.3.18-.08.06c-.38-.5-.77-.99-1.17-1.47-1.08-1.3-2.23-2.55-3.43-3.74l.2-.2c3.95-1.5,7.23-4.67,8.86-8.56.9-2.14,1.35-4.53,2.73-6.4,1.52-2.04,4.03-3.21,6.56-3.41,2.53-.2,5.07.49,7.35,1.61,0,0,0,0,0,0Z"/>
        <path class="cls-45" d="M218.36,82.64c.31.04.62.09.93.14-6.78,2.14-12.94,7.82-13.47,14.91-.3,3.93,1.11,7.94.16,11.76-1.35,5.43-6.86,8.58-11.85,11.12-2.11-1.4-4.32-2.66-6.61-3.77l.16-.31c5.17-2.82,9.08-7.87,10.5-13.58.71-2.81.84-5.77,1.84-8.49,1.34-3.65,4.19-6.64,7.56-8.58,3.27-1.88,7.02-2.83,10.78-3.19Z"/>
        <path class="cls-6" d="M178.16,83.09l.23.16c-1.37,1.99-2.69,4.03-3.51,6.3-.95,2.62-1.16,5.63.05,8.14.7,1.46,1.84,2.68,2.55,4.14,1.56,3.21.82,7.04-.61,10.35-.09.21-.19.42-.28.64-2-.51-4.02-.91-6.07-1.19.32-1.87.29-3.8-.07-5.66-.33-1.66-.92-3.25-1.26-4.9-1.44-7.07,2.46-14.88,8.98-17.97Z"/>
        <path class="cls-9" d="M163.35,107.88c-.05,1.01-.09,2.03-.13,3.03v.21c-.65,0-1.31.01-1.97.04-2.5-.01-5.67.13-9.22.66l-.08-.54c.95-3.34-.44-6.91-2.23-9.89-1.78-2.99-4.02-5.78-4.99-9.12-1.54-5.27.31-11-.83-16.37-1.2-5.66-5.98-10.38-11.64-11.57,4.42-.38,8.94,1.34,12.22,4.35,3.5,3.22,5.62,7.8,6.24,12.51.35,2.6.28,5.32,1.35,7.72,1.4,3.13,4.45,5.12,6.73,7.67,2.75,3.09,4.36,7.17,4.54,11.3Z"/>
        <path class="cls-33" d="M138.33,115.49l.03.08c-1,.42-2,.88-3,1.37-.81.41-1.66.89-2.52,1.44l-.18-.29c.16-3.48-1.44-7-4.19-9.16-2.74-2.16-6.44-2.96-8.92-5.43-3.13-3.13-3.48-8.08-2.95-12.47l.13-.02c.57,3.61,2.8,6.94,5.94,8.82,4.03,2.42,9.41,2.59,12.59,6.05,2.32,2.52,2.85,6.18,3.05,9.61Z"/>
        <path class="cls-144" d="M125.13,124.1l.12.13c-2.49,2.24-4.79,4.67-6.86,7.25-1.49-5.26-4.29-10.4-8.97-13.2-2.58-1.54-5.57-2.28-8.25-3.66-7.08-3.66-11.27-12.19-9.89-20.03,1.52,5.82,4.51,11.75,10.03,13.99,3.12,1.27,6.61,1.16,9.89,1.92,6.64,1.55,12.22,6.99,13.93,13.59Z"/>
        <path class="cls-5" d="M113.16,138.45c.02.2.03.4.03.6-.73,1.26-1.41,2.54-2.05,3.84l-.19-.09c-2.46-.62-5.03-.43-7.57-.44-3.81-.01-7.68-.52-11.2-2-3.42-1.44-6.5-3.85-8.33-7.07-.03-.19-.04-.38-.06-.58,3.48,3.47,8.72,5.09,13.55,4.17,2.89-.54,5.59-1.92,8.51-2.22,2.92-.3,6.38.97,7.13,3.81h.17Z"/>
        <path class="cls-110" d="M107.76,150.36l.28.1c-1.17,3.51-2.01,7.13-2.49,10.8l-.16-.02c-6.63,2.55-14.21,2.53-20.84-.04-2.66-1.03-5.2-2.47-8.01-2.99-6.14-1.14-12.2,2.29-17.01,6.27l-.17-.08c1.22-2.74,2.75-5.36,4.86-7.48,2.44-2.46,5.73-4.21,9.19-4.26,6.08-.08,12.04,4.92,17.72,2.75,2.56-.98,4.41-3.26,6.89-4.43,1.69-.79,3.53-1.02,5.41-.99,1.44.21,2.89.33,4.34.38Z"/>
        <path class="cls-16" d="M105.97,178.95l-.33.06c-2.56-.38-4.79,1.58-6.78,3.23-3.19,2.65-6.85,4.87-10.91,5.73-4.06.86-8.56.21-11.83-2.35h-.02c-.17-.23-.34-.47-.5-.71,2.88,1.56,6.58,1.47,9.38-.22,3-1.81,4.74-5.1,7.13-7.68,3.31-3.55,8.03-5.76,12.88-6.01h0s.06-.02.09-.02c.1,2.66.39,5.32.88,7.97Z"/>
        <path class="cls-125" d="M112.7,196.78l-.31.19c-4.17-.09-7.99,2.25-11.24,4.86-3.25,2.61-6.28,5.62-10.08,7.32-6.32,2.83-13.82,1.53-20.07-1.47-.03-.03-.07-.06-.1-.1,5.87.61,12.4,1.04,17.03-2.62,5.2-4.11,6.39-12.25,12.23-15.37,2.5-1.33,5.44-1.48,8.27-1.49l.08-.03c1.13,3.01,2.54,5.92,4.18,8.7Z"/>
        <path class="cls-20" d="M121.75,208.38c-2.04.4-3.55,2.15-4.54,3.98-1.32,2.44-1.98,5.17-2.78,7.83-.8,2.66-1.78,5.34-3.6,7.44-1.79,2.07-4.56,3.48-7.24,3.02,4.03-1.71,6.24-6.59,6.68-11.09.31-3.13.05-6.34.87-9.38.81-2.97,3.05-5.87,6.09-6.21.06,0,.13-.01.2-.02l.18-.14c1.3,1.6,2.68,3.12,4.14,4.57Z"/>
        <path class="cls-13" d="M133.46,217.32c-2.83,5.09,1.44,11.84-.78,17.27-1.49,3.64-5.51,5.68-7.27,9.19-2.28,4.58-.1,10.01,2.14,14.63-5.47-4.43-7.07-13.07-3.4-19.11,1.32-2.17,3.26-4.14,3.54-6.67.25-2.31-.96-4.49-1.74-6.67-1.3-3.64-1.4-7.69-.34-11.41.23-.6.44-1.2.62-1.81l.16-.21c2.23,1.78,4.59,3.39,7.06,4.79Z"/>
        <path class="cls-135" d="M150.75,239.05c.38,5.41-3.25,10.85-8.38,12.56v-.02c2.31-1.21,3.96-3.54,4.62-6.08.67-2.59.38-5.36-.48-7.89-.89-2.59-2.38-4.94-3.23-7.54-.86-2.6-1-5.68.65-7.86l.04-.34c1.77.55,3.57.99,5.39,1.33l-.03.14c-1.01.58-1.59,1.75-1.71,2.92-.12,1.16.16,2.33.49,3.45.94,3.1,2.42,6.09,2.65,9.32Z"/>
        <path class="cls-91" d="M177.51,244.76c1.23,2.73,1.4,5.84,1.25,8.84-.21,4.31-1.29,9.03-4.69,11.63,0,0,0,0,0,0-.25.11-.5.22-.76.32,2.88-4.18,2.96-10.1.18-14.35-3.52-5.39-10.59-7.53-14.38-12.74-2.9-3.99-3.41-9.6-1.27-14.05h-.24s.01-.31.01-.31c2.61.09,5.23,0,7.83-.27l.02.17c-1.4,3.95,1,8.25,3.89,11.29,2.89,3.04,6.44,5.65,8.16,9.47Z"/>
        <path class="cls-93" d="M113.19,139.05c-.1-4.93-3.73-9.09-7.66-12.07s-8.42-5.37-11.57-9.16c-5.42-6.51-5.79-16.13-2.91-24.1,1.45,6.09,4.45,12.52,10.25,14.87,3.12,1.26,6.61,1.16,9.89,1.92,6.64,1.55,12.22,6.99,13.93,13.59,1.87-3.07.6-7.16-1.52-10.06-2.12-2.91-5.02-5.22-6.87-8.31-2.74-4.57-2.76-10.64-.06-15.23.43,3.81,2.72,7.37,6.01,9.35,4.03,2.42,9.41,2.59,12.6,6.05,2.32,2.52,2.85,6.18,3.05,9.6"/>
        <path class="cls-67" d="M138.84,115.04c-.24-3.25.15-6.55,1.13-9.66.83-2.63,2.11-5.29,1.67-8.02-.75-4.57-6.13-7.83-5.58-12.43.23-1.91,1.48-3.52,2.18-5.32,1.1-2.83.78-6.1-.57-8.82-1.35-2.72-3.66-4.88-6.31-6.37,4.7-.72,9.63,1.03,13.13,4.25,3.5,3.22,5.62,7.8,6.24,12.51.35,2.6.28,5.32,1.35,7.72,1.4,3.12,4.45,5.12,6.73,7.67,3.43,3.85,5.08,9.21,4.42,14.32.18-4.83.38-9.74,1.99-14.3,2.28-6.44,7.46-11.79,13.82-14.29-1.6,2.28-3.22,4.6-4.16,7.22-.95,2.62-1.16,5.63.05,8.14.7,1.46,1.84,2.68,2.55,4.14,1.67,3.43.7,7.57-.91,11.03"/>
        <path class="cls-65" d="M177.24,112.34c3.93-.86,6.74-4.36,8.47-7.98s2.74-7.6,4.84-11.03c2.83-4.62,7.52-7.95,12.67-9.63s10.72-1.8,16.07-.92c-6.79,2.14-12.94,7.82-13.47,14.91-.29,3.93,1.11,7.94.16,11.76-1.35,5.43-6.86,8.58-11.85,11.11,4.39.16,8.82-1.76,11.71-5.07,2.86-3.28,4.5-7.98,8.51-9.67,2.47-1.05,5.37-.65,7.81.47,2.45,1.11,4.53,2.87,6.58,4.6-2.87-.71-6.11.44-7.89,2.8-1.78,2.37-2.03,5.51-2.98,8.32-1.62,4.79-5.54,8.74-10.31,10.41"/>
        <path class="cls-108" d="M207.27,132.62c3.23.93,6.69-.58,9.37-2.61s4.94-4.62,7.82-6.36c3.12-1.88,6.9-2.66,10.52-2.16,4.21.58,8.39,2.82,12.49,1.71,4.29-1.16,6.79-5.53,8.55-9.61,1.17,4.57.36,9.6-2.18,13.57-2.54,3.97-6.77,6.82-11.41,7.67-3.48.64-7.56.41-9.91,3.06-.73.82-1.19,1.84-1.67,2.82-1.4,2.87-3.11,5.64-5.45,7.81s-5.38,3.71-8.57,3.78c5.33-.5,10.72-1.01,16.01-.22,5.29.79,10.56,3.03,13.98,7.14-3-1.13-6.48-.89-9.29.65-3.77,2.07-6.18,6.23-10.17,7.87-2.63,1.08-5.75.87-8.21-.56,1.16,4.48,6.48,6.49,11.11,6.58,4.63.09,9.38-.99,13.82.3,2.7.79,5.1,2.42,7.08,4.41,4.39,4.39,6.85,10.65,6.65,16.85-3.53-4.72-9.39-7.91-15.26-7.33-4.55.45-8.66,3.02-13.18,3.72-4.93.76-10.17-.89-13.78-4.34-1.31,2.23-.24,5.26,1.75,6.92,1.99,1.66,4.63,2.26,7.18,2.69,2.55.44,5.19.79,7.43,2.1,5,2.92,6.37,9.47,6.65,15.25-1.04-1.97-2.36-3.79-3.91-5.39-1.18-1.22-2.54-2.34-4.15-2.89-1.4-.48-2.91-.52-4.39-.42-3.52.22-7,1.14-10.52,1.03-3.53-.1-7.33-1.5-8.96-4.63"/>
        <path class="cls-106" d="M112.99,138.46c-.75-2.84-4.21-4.11-7.13-3.81s-5.63,1.68-8.51,2.22c-4.83.91-10.07-.7-13.55-4.17.41,5.43,3.89,10.33,8.45,13.3,4.56,2.97,10.08,4.18,15.52,4.37-3.28-.42-6.76-.79-9.75.62-2.48,1.17-4.33,3.45-6.89,4.43-5.68,2.17-11.64-2.83-17.72-2.75-3.46.05-6.75,1.8-9.19,4.26-2.44,2.46-4.11,5.58-5.42,8.79,3.06-3.39,7.97-4.99,12.44-4.07,6.71,1.39,11.52,7.75,18.21,9.28,2.29.52,4.66.44,7,.36,2.91-.1,5.83-.2,8.74-.31"/>
        <path class="cls-36" d="M104.99,171c-4.85.25-9.57,2.45-12.88,6.01-2.39,2.57-4.13,5.86-7.13,7.68-2.8,1.69-6.5,1.78-9.38.22,3.61,5.66,11.21,8.41,17.6,6.38,2.57-.82,4.88-2.29,7.41-3.24,2.52-.95,5.5-1.31,7.82.08-2.83.01-5.77.16-8.27,1.49-5.85,3.11-7.04,11.26-12.23,15.37-4.63,3.66-11.16,3.23-17.03,2.61,4.54,4.64,10.84,7.52,17.32,7.91,6.48.4,13.08-1.69,18.15-5.74,3.31-2.64,6.64-6.32,10.85-5.84"/>
        <path class="cls-38" d="M117.43,203.95c-3.14.23-5.46,3.19-6.28,6.22-.82,3.04-.56,6.25-.87,9.38-.49,4.96-3.11,10.36-7.96,11.51,5.41.5,10.92-1.44,15.14-4.87,4.22-3.43,7.18-8.27,8.79-13.46-1.69,4.17-1.8,8.97-.29,13.21.78,2.19,1.99,4.37,1.74,6.68-.27,2.53-2.22,4.5-3.54,6.67-3.82,6.28-1.94,15.37,4.06,19.62-2.03-5.57-.33-12.29,4.09-16.23,1.69-1.5,3.75-2.65,5.03-4.51,1.7-2.46,1.74-5.66,2.16-8.62.42-2.96,1.62-6.25,4.42-7.32-1.64,2.19-1.51,5.27-.65,7.86s2.34,4.95,3.23,7.54c.87,2.53,1.16,5.3.48,7.89-.67,2.59-2.37,4.96-4.77,6.15,5.13,1.02,10.14-3.37,11.46-8.43.82-3.17.55-6.51.71-9.78.16-3.27.88-6.75,3.21-9.05"/>
        <path class="cls-151" d="M157.84,224.42c-2.14,4.45-1.63,10.05,1.27,14.05,3.78,5.21,10.85,7.35,14.38,12.74,2.78,4.25,2.7,10.17-.18,14.35,4.15-1.55,6.77-5.7,8.25-9.89,1.37-3.9,2.01-8.17,1.07-12.19-.87-3.73-3.01-7.02-4.74-10.43-1.74-3.41-3.12-7.28-2.32-11.03-.14,3.3,2.37,6.13,5.12,7.96,2.75,1.83,5.9,3.08,8.32,5.32,2.65,2.46,4.21,6.05,4.21,9.66,4.3-9.24,2.82-20.88-3.64-28.76"/>
        <path class="cls-90" d="M189.91,216.57c2.24,3.88,5.14,8.2,9.6,8.62,1.63.15,3.27-.26,4.9-.07,2.7.31,4.96,2.22,6.67,4.33s3.1,4.51,5.06,6.4c2.78,2.68,6.56,4.16,10.38,4.67,3.83.51,7.72.12,11.52-.52-7.11-2.08-13.15-7.55-15.92-14.43-.96-2.38-1.59-4.99-3.3-6.9-2.5-2.81-6.92-3.66-8.8-6.92-1.66-2.88-.95-7.07-3.58-9.11"/>
        <path class="cls-42" d="M59.53,164.48c4.82-3.98,10.87-7.41,17.01-6.27,2.81.52,5.35,1.96,8.01,2.99,6.62,2.57,14.2,2.59,20.84.04"/>
        <path class="cls-152" d="M83.7,133c1.8,3.36,4.97,5.88,8.49,7.35,3.52,1.48,7.38,1.99,11.2,2,2.53.01,5.11-.18,7.57.44"/>
        <path class="cls-112" d="M91.36,94.13c-1.63,7.97,2.58,16.77,9.8,20.5,2.68,1.38,5.67,2.11,8.25,3.66,4.81,2.88,7.64,8.23,9.09,13.65"/>
        <path class="cls-126" d="M76.12,185.61c3.26,2.57,7.76,3.21,11.82,2.35s7.72-3.08,10.91-5.73c1.99-1.65,4.22-3.62,6.78-3.23"/>
        <path class="cls-127" d="M70.9,207.64c6.27,3.03,13.81,4.35,20.17,1.51,3.81-1.7,6.83-4.71,10.08-7.32,3.25-2.61,7.07-4.95,11.24-4.86"/>
        <path class="cls-109" d="M103.48,230.62c2.73.52,5.54-.9,7.36-3,1.82-2.1,2.8-4.78,3.6-7.44.8-2.66,1.46-5.39,2.78-7.83.99-1.84,2.51-3.58,4.56-3.98"/>
        <path class="cls-52" d="M127.64,258.58c-2.26-4.66-4.53-10.17-2.22-14.81,1.75-3.52,5.78-5.55,7.27-9.19,2.23-5.47-2.13-12.3.85-17.4"/>
        <path class="cls-64" d="M142.36,251.62c5.14-1.72,8.77-7.16,8.39-12.56-.23-3.23-1.71-6.22-2.65-9.32-.34-1.12-.61-2.29-.49-3.45.12-1.16.69-2.33,1.71-2.92"/>
        <path class="cls-117" d="M173.75,265.46c3.65-2.55,4.79-7.42,5.01-11.87.15-3-.01-6.1-1.25-8.84-1.73-3.82-5.28-6.43-8.16-9.47-2.89-3.04-5.29-7.34-3.89-11.29"/>
        <path class="cls-143" d="M193.43,244.08c1.3-2.16.87-4.89.32-7.35-.28-1.25-.58-2.5-1.18-3.63-1.33-2.53-3.93-4.08-6.07-5.98-2.14-1.9-3.98-4.78-3.05-7.48"/>
        <path class="cls-8" d="M237.67,239.84c-6.9-.78-14.3-2.7-18.52-8.22-2.25-2.94-3.41-6.71-6.12-9.23-2.43-2.26-5.77-3.21-8.67-4.81-2.91-1.6-5.65-4.47-5.23-7.76"/>
        <path class="cls-28" d="M238.56,213.3c-1.44-5.12-4.63-10.13-9.62-11.98-3-1.11-6.3-.96-9.45-1.53-3.15-.57-6.49-2.21-7.44-5.27"/>
        <path class="cls-133" d="M257.79,194.74c-1.29-2.62-2.74-5.16-4.33-7.61-1.12-1.72-2.36-3.42-4.05-4.58-4.16-2.84-9.71-1.66-14.74-1.28-5.91.45-12.3-.58-16.66-4.6"/>
        <path class="cls-118" d="M116.61,91.04c-.53,4.39-.19,9.34,2.95,12.47,2.47,2.47,6.17,3.27,8.92,5.43,2.74,2.16,4.35,5.68,4.18,9.16"/>
        <path class="cls-25" d="M131.86,64.25c5.83,1.04,10.81,5.85,12.04,11.65,1.14,5.37-.7,11.11.83,16.37.97,3.34,3.21,6.13,4.99,9.12,1.79,2.98,3.18,6.54,2.23,9.89"/>
        <path class="cls-137" d="M178.16,83.09c-6.52,3.1-10.41,10.9-8.97,17.97.34,1.65.93,3.25,1.26,4.91.38,1.91.4,3.89.05,5.81"/>
        <path class="cls-153" d="M218.7,82.61c-3.88.34-7.75,1.28-11.12,3.22-3.37,1.94-6.22,4.93-7.56,8.58-1,2.72-1.13,5.68-1.83,8.49-1.43,5.71-5.33,10.76-10.5,13.58"/>
        <path class="cls-136" d="M228.3,110.52c-2.28-1.12-4.82-1.82-7.35-1.61-2.53.2-5.05,1.37-6.56,3.41-1.39,1.87-1.83,4.25-2.73,6.4-1.64,3.89-4.92,7.06-8.86,8.56"/>
        <path class="cls-62" d="M256.37,114.03c-.96,7.4-7.28,13.77-14.67,14.78-2.18.3-4.39.18-6.57.36-5.65.48-11.09,3.09-15,7.19-2.01,2.11-3.75,4.69-6.44,5.81"/>
        <path class="cls-139" d="M246.29,158.57c-3.38-1.75-7.2-3.26-10.91-2.43-1.56.35-3,1.1-4.45,1.78-2.01.95-4.09,1.81-6.28,2.15-2.19.34-4.53.12-6.47-.97"/>
        <path class="cls-54" d="M108.94,183.83c.64,3.77,2.54,7.2,4.4,10.54,3.02,5.4,6.17,10.96,11.11,14.69"/>
        <path class="cls-105" d="M118.82,200.81c2.83,3.92,6.4,7.3,10.47,9.91"/>
        <path class="cls-107" d="M188.27,119.07c4.6,2.34,8.77,5.55,12.22,9.39"/>
        <path class="cls-66" d="M185.02,118.78c2.6,1.07,5.02,2.59,7.11,4.47"/>
        <path class="cls-124" d="M154.84,95.38c4.04,2.83,6.6,7.66,6.7,12.59"/>
        <path class="cls-43" d="M119.17,98.53c2.58,2.26,5.69,3.91,9.01,4.78"/>
        <path class="cls-92" d="M94.99,154.63c2.64-1.52,5.77-2.18,8.8-1.86"/>
        <path class="cls-121" d="M100.13,151.64c1.74-.47,3.6-.51,5.37-.11"/>
        <path class="cls-39" d="M87.39,205.94c3.1-.51,5.07-3.49,6.66-6.2,1.24-2.11,2.48-4.23,3.72-6.34"/>
        <path class="cls-71" d="M127.51,226.62c-1.24-2.84-1.7-6.01-1.3-9.08"/>
        <path class="cls-63" d="M128.13,226.02c-.48-1.76-.77-3.56-.87-5.38"/>
        <path class="cls-123" d="M161.54,239.62c3.62,2.01,7.03,4.4,10.15,7.11"/>
        <path class="cls-149" d="M212.83,229.4c1.76,3.96,5.2,7.13,9.28,8.58"/>
        <path class="cls-35" d="M215.93,186.35c2.07,1.9,4.6,3.31,7.31,4.07"/>
        <path class="cls-72" d="M219.81,187.33c2.96,1.55,6.34,2.29,9.67,2.12"/>
        <path class="cls-99" d="M225.87,145.68c1.77-1.97,3.11-4.32,3.88-6.86"/>
        <path class="cls-41" d="M196.38,117.06c3.34-1.17,6.05-4,7.07-7.39"/>
        <path class="cls-19" d="M161.26,111.16c16.92-.63,33.94,7.02,44.76,20.05,10.82,13.03,15.21,31.13,11.62,47.68-3.58,16.55-15.05,31.2-30.22,38.71-3.96,1.96-8.14,3.46-12.42,4.54-8.21,2.08-16.85,2.65-25.19,1.16-21.18-3.77-38.89-21.57-43.48-42.59-4.59-21.02,3.46-43.11,19.72-57.2,2.63-2.27,6.21-5.02,9.32-6.57,9.82-4.91,19.83-5.83,25.9-5.79"/>
      </g>
    </g>
  </g>
</svg>